<svg id="Layer_1" data-name="Layer 1" xmlns="http://www.w3.org/2000/svg" viewBox="0 0 168 112"><defs><style>.cls-1{fill:none;}.cls-2{fill:#de4447;}.cls-3{fill:#e21836;}.cls-4{fill:#2a557c;}.cls-5{fill:#00447c;}.cls-6{fill:#007b84;}.cls-7{fill:#fff;}</style></defs><title>unionpay</title><rect class="cls-1" width="168" height="112"/><path class="cls-1" d="M76.1,25.32h0Z"/><path class="cls-1" d="M36.06,80.69v4h4.47A4.33,4.33,0,0,1,36.06,80.69Z"/><path class="cls-2" d="M101.51,25.33h0Z"/><path class="cls-3" d="M57.31,78.94L68.14,31.06c0.71-3.13,4.68-5.67,7.83-5.74H55c-3.17,0-7.23,2.57-8,5.74L36.19,78.94a6,6,0,0,0-.12.86v0.89a4.33,4.33,0,0,0,4.47,4H61.66A4.43,4.43,0,0,1,57.31,78.94Z"/><path class="cls-4" d="M92.36,25.33h0Z"/><path class="cls-5" d="M82.87,78.94L93.69,31.06c0.71-3.11,4.63-5.63,7.77-5.73H76c-3.15.06-7.12,2.6-7.83,5.74L57.31,78.94a4.43,4.43,0,0,0,4.35,5.74H87.22A4.43,4.43,0,0,1,82.87,78.94Z"/><path class="cls-6" d="M124.4,25.34H101.46c-3.14.1-7.06,2.62-7.77,5.73L82.87,78.94a4.43,4.43,0,0,0,4.35,5.74h24A7.65,7.65,0,0,0,118,79l10.82-47.88A4.44,4.44,0,0,0,124.4,25.34Z"/><path class="cls-7" d="M76.41,60.22h0.4a0.72,0.72,0,0,0,.73-0.37l1-1.55h2.77l-0.58,1h3.32l-0.42,1.56H79.71a1.85,1.85,0,0,1-1.69,1H76l0.45-1.63M76,62.45h7.26l-0.46,1.69H79.84l-0.45,1.63h2.84l-0.46,1.69H78.93l-0.66,2.41q-0.25.61,0.64,0.54h2.32L80.8,72H76.35q-1.26,0-.87-1.45l0.84-3.08H74.51L75,65.77h1.82l0.45-1.63H75.5Zm11.6-4.15-0.11,1a5.33,5.33,0,0,1,2.61-1h4.6L92.9,64.62Q92.68,65.71,91,65.71H85.81l-1.22,4.47c-0.07.24,0,.36,0.29,0.36h1l-0.38,1.39H82.92q-1.5,0-1.25-.91l3.45-12.73h2.44Zm3.89,1.8h-4.1l-0.49,1.72a3.41,3.41,0,0,1,1.83-.51c1.14,0,2.44,0,2.44,0Zm-1.49,4a0.37,0.37,0,0,0,.49-0.36l0.25-.91H86.6l-0.34,1.27H90Zm-2.77,2.06h2.37l0,1h0.63c0.32,0,.48-0.1.48-0.3l0.19-.66h2l-0.26,1a1.7,1.7,0,0,1-1.77,1.27H89.48v1.75c0,0.28.23,0.42,0.75,0.42h1.19L91,72H88.19A1,1,0,0,1,87,70.84Z"/><path class="cls-7" d="M97.26,60.29l0.55-1.93h2.78l-0.12.71a7,7,0,0,1,2.44-.71h3.44l-0.55,1.93h-0.54l-2.59,9.12h0.54l-0.51,1.81h-0.54l-0.22.79H99.24l0.22-.79H94.15l0.52-1.81H95.2l2.59-9.12H97.26m3,0-0.71,2.47a11.53,11.53,0,0,1,2.25-.6c0.23-.86.53-1.87,0.53-1.87h-2.08Zm-1,3.63L98.51,66.5a7.73,7.73,0,0,1,2.26-.72c0.27-1,.53-1.87.53-1.87H99.22Zm0.52,5.5,0.53-1.88H98.2l-0.53,1.88h2.08Zm6.72-11.18h2.61l0.11,1c0,0.25.13,0.36,0.44,0.36h0.46l-0.47,1.63H107.7a0.9,0.9,0,0,1-1.15-.85Zm-0.77,3.5h8.46l-0.5,1.75H111l-0.46,1.63h2.69l-0.5,1.75h-3l-0.68,1h1.47l0.34,2.05a0.45,0.45,0,0,0,.53.3h0.46l-0.48,1.69h-1.61c-0.84,0-1.27-.24-1.3-0.84L108,69.22l-1.34,2a1.44,1.44,0,0,1-1.45.79h-2.46l0.48-1.69H104a1,1,0,0,0,.81-0.42l2.09-3h-2.69l0.5-1.75h2.92l0.46-1.63H105.2Z"/><path class="cls-7" d="M58.47,49.81a5.79,5.79,0,0,1-2.22,3.64,7.28,7.28,0,0,1-4.43,1.27,4.85,4.85,0,0,1-3.75-1.3,3.39,3.39,0,0,1-.83-2.35,6.28,6.28,0,0,1,.14-1.27l1.93-9.29h2.91l-1.9,9.19a3,3,0,0,0-.08.7,1.79,1.79,0,0,0,.35,1.16,2,2,0,0,0,1.68.67,3.51,3.51,0,0,0,2.21-.66,3,3,0,0,0,1.11-1.87l1.91-9.19h2.9l-1.93,9.29"/><path class="cls-7" d="M61.16,46.15h2.06L63,47.35l0.3-.34a3.2,3.2,0,0,1,2.43-1.07,2.23,2.23,0,0,1,1.88.76,2.52,2.52,0,0,1,.31,2.1l-1.13,5.65H64.65l1-5.12a1.63,1.63,0,0,0-.09-1.18,1,1,0,0,0-.91-0.38,2,2,0,0,0-1.37.51,2.51,2.51,0,0,0-.74,1.41l-0.94,4.77H59.5l1.66-8.3"/><path class="cls-7" d="M84.73,46.15h2.06l-0.23,1.2L86.84,47a3.2,3.2,0,0,1,2.43-1.07,2.22,2.22,0,0,1,1.88.76,2.51,2.51,0,0,1,.31,2.1l-1.13,5.65H88.21l1-5.12a1.65,1.65,0,0,0-.08-1.18,1,1,0,0,0-.91-0.38,2,2,0,0,0-1.38.51,2.48,2.48,0,0,0-.74,1.41l-0.95,4.77H83.07l1.66-8.3"/><path class="cls-7" d="M70.7,46.16H73l-1.79,8.29H68.92l1.78-8.29m0.72-3h2.3l-0.43,2H71Z"/><path class="cls-7" d="M75,53.82a3.06,3.06,0,0,1-.9-2.31,5.38,5.38,0,0,1,0-.56c0-.21,0-0.42.09-0.6a5.62,5.62,0,0,1,1.73-3.21,4.64,4.64,0,0,1,3.2-1.19,3.36,3.36,0,0,1,2.43.86,3.1,3.1,0,0,1,.89,2.34,5.71,5.71,0,0,1,0,.58c0,0.21-.06.42-0.1,0.62a5.47,5.47,0,0,1-1.73,3.16,4.67,4.67,0,0,1-3.19,1.17A3.39,3.39,0,0,1,75,53.82m4.34-1.64a4,4,0,0,0,.86-2c0-.14,0-0.28.06-0.42a3.8,3.8,0,0,0,0-.39,1.68,1.68,0,0,0-.39-1.19,1.43,1.43,0,0,0-1.11-.42,2,2,0,0,0-1.55.67,4.18,4.18,0,0,0-.88,2c0,0.14,0,.27-0.06.41a2.94,2.94,0,0,0,0,.38,1.65,1.65,0,0,0,.39,1.18,1.44,1.44,0,0,0,1.11.42,2,2,0,0,0,1.55-.66"/><path class="cls-7" d="M94.89,41h6a4,4,0,0,1,2.65.77,2.76,2.76,0,0,1,.91,2.23v0c0,0.18,0,.39,0,0.62s-0.07.45-.12,0.68a5.25,5.25,0,0,1-1.82,3.09,5.14,5.14,0,0,1-3.36,1.17H95.9l-1,4.86H92.14L94.89,41m1.49,6.24H99a2.57,2.57,0,0,0,1.64-.48,2.51,2.51,0,0,0,.81-1.48c0-.12,0-0.23.06-0.34s0-.19,0-0.29a1.14,1.14,0,0,0-.51-1,3,3,0,0,0-1.61-.32H97.2Z"/><path class="cls-7" d="M116.84,56.05a13.06,13.06,0,0,1-2.2,3.46,4.46,4.46,0,0,1-3.81,1.57l0.2-1.42c2-.61,3-3.35,3.65-4.56l-0.72-8.93,1.53,0h1.28l0.14,5.6,2.4-5.6h2.43l-4.88,9.9"/><path class="cls-7" d="M110,46.83l-1,.66a3,3,0,0,0-3.7-.45c-2.42,1.12-4.44,9.73,2.22,6.89L108,54.38l2.62,0.07,1.72-7.82-2.27.2m-1.49,4.27c-0.42,1.24-1.36,2.06-2.1,1.83s-1-1.43-.57-2.67,1.37-2.06,2.1-1.83,1,1.43.57,2.67"/></svg>