<svg id="Layer_1" data-name="Layer 1" xmlns="http://www.w3.org/2000/svg" xmlns:xlink="http://www.w3.org/1999/xlink" viewBox="0 0 168 112"><defs><style>.cls-1{fill:none;}.cls-2{fill:#4db45e;}.cls-3{fill:url(#linear-gradient);}</style><linearGradient id="linear-gradient" x1="-782.32" y1="1470.88" x2="-746.9" y2="1470.88" gradientTransform="matrix(1.03, 0, 0, -1.03, 918.62, 1559.73)" gradientUnits="userSpaceOnUse"><stop offset="0.3" stop-color="#00b4e6"/><stop offset="1" stop-color="#088ccb"/></linearGradient></defs><title>мир</title><rect class="cls-1" width="168" height="112"/><path class="cls-2" d="M58.42,36.9v0s-4.85,0-6.13,4.6c-1.18,4.23-4.51,15.91-4.6,16.23H46.76s-3.4-11.94-4.6-16.25C40.87,36.88,36,36.9,36,36.9H25V72H36V51.15H37L43.39,72h7.66L57.5,51.17h0.92V72h11V36.9h-11Zm40.31,0A6.18,6.18,0,0,0,94,40.58L86.16,57.75H85.24V36.9h-11V72H84.62a6.37,6.37,0,0,0,4.91-3.68l7.66-17.17h0.92V72h11V36.9H98.72Zm15.33,15.94V72h11V60.81h12a11.94,11.94,0,0,0,11.26-8H114.05Z"/><path class="cls-3" d="M137,36.9H112.5a17.63,17.63,0,0,0,17.34,14.41h18.92a11.78,11.78,0,0,0,.25-2.45,12,12,0,0,0-12-12h0Z"/></svg>