<?xml version="1.0" encoding="utf-8"?>
<!-- Generator: Adobe Illustrator 25.0.1, SVG Export Plug-In . SVG Version: 6.00 Build 0)  -->
<svg version="1.1" id="Layer_1" xmlns="http://www.w3.org/2000/svg" xmlns:xlink="http://www.w3.org/1999/xlink" x="0px" y="0px"
	 width="168px" height="112px" viewBox="0 0 168 112" style="enable-background:new 0 0 168 112;" xml:space="preserve">
<style type="text/css">
	.st0{fill:none;}
	.st1{fill:#FFFFFF;}
	.st2{fill:#F7B600;}
	.st3{fill:#1A1F71;}
</style>
<rect class="st0" width="168" height="112"/>
<g id="g4145" transform="matrix(0.92593451,0,0,-0.92593451,112.53737,857.68971)">
	<path class="st1" d="M28.7,828h-119v75.6h119V828L28.7,828z"/>
	<path class="st2" d="M-88.4,840.3H26.7V830H-88.4V840.3z"/>
	<path class="st3" d="M-88.4,891.3H26.7v10.3H-88.4V891.3z"/>
	<g id="visa">
		<g id="g4161" transform="translate(302.4478,424.6084)">
			<path id="path4163" class="st3" d="M-335.6,457.4l-5.8-27h-7l5.8,27H-335.6z M-306.2,440l3.7,10.1l2.1-10.1H-306.2z
				 M-298.4,430.4h6.4l-5.6,27h-5.9c-1.3,0-2.5-0.8-3-2l-10.5-25h7.3l1.5,4h8.9C-299.3,434.5-298.4,430.4-298.4,430.4z
				 M-316.6,439.2c0,7.1-9.8,7.5-9.8,10.7c0,1,0.9,2,3,2.3c1,0.1,3.8,0.2,6.9-1.2l1.2,5.7c-1.7,0.6-3.8,1.2-6.5,1.2
				c-6.9,0-11.7-3.7-11.8-8.9c0-3.9,3.5-6,6.1-7.3c2.7-1.3,3.6-2.2,3.6-3.3c0-1.8-2.2-2.6-4.2-2.6c-3.5-0.1-5.5,0.9-7.2,1.7
				l-1.3-5.9c1.6-0.7,4.6-1.4,7.8-1.4C-321.5,430-316.7,433.6-316.6,439.2 M-345.5,457.4l-11.3-27h-7.4l-5.6,21.5
				c-0.3,1.3-0.6,1.8-1.7,2.4c-1.7,0.9-4.4,1.8-6.9,2.3l0.2,0.8h11.9c1.5,0,2.9-1,3.2-2.7l2.9-15.6l7.3,18.3H-345.5z"/>
		</g>
		<g id="g4165" transform="translate(318.6445,362.2266)">
			<path id="path4167" class="st3" d="M-342.8,485.4h-2.8v-2.6h3.2V482h-4.1v7.3h4v-0.8h-3v-2.3h2.8V485.4z"/>
		</g>
		<path id="path4169" class="st3" d="M-22.4,851.9h1v-7.7h-1V851.9z"/>
		<g id="g4171" transform="translate(333.0977,361.6953)">
			<path id="path4173" class="st3" d="M-349.3,485.6c0,0.6-0.2,1.5-1.3,1.5c-1,0-1.4-0.9-1.5-1.5H-349.3z M-352.1,485
				c0-1.3,0.8-1.8,1.8-1.8c0.7,0,1.1,0.1,1.5,0.3l0.2-0.7c-0.3-0.2-0.9-0.3-1.8-0.3c-1.6,0-2.6,1.1-2.6,2.7s0.9,2.8,2.5,2.8
				c1.7,0,2.2-1.5,2.2-2.5c0-0.2,0-0.3,0-0.4C-348.4,485-352.1,485-352.1,485z"/>
		</g>
		<g id="g4175" transform="translate(344.2041,356.3369)">
			<path id="path4177" class="st3" d="M-354.3,488c-0.2-0.1-0.8-0.3-1.5-0.3c-1.6,0-2.6,1.1-2.6,2.7c0,1.6,1.1,2.8,2.8,2.8
				c0.6,0,1.1-0.1,1.3-0.3l-0.2-0.7c-0.2,0.1-0.6,0.3-1.1,0.3c-1.2,0-1.9-0.9-1.9-2c0-1.2,0.8-2,1.8-2c0.5,0,0.9,0.1,1.2,0.2
				L-354.3,488z"/>
		</g>
		<g id="g4179" transform="translate(349.0664,367.8213)">
			<path id="path4181" class="st3" d="M-356.5,482.9v-1.3h1.4v-0.7h-1.4v-2.8c0-0.7,0.2-1,0.7-1c0.3,0,0.4,0,0.6,0.1l0-0.7
				c-0.2-0.1-0.5-0.1-0.8-0.1c-0.4,0-0.8,0.2-1,0.4c-0.3,0.3-0.4,0.8-0.4,1.4v2.9h-0.8v0.7h0.8v1L-356.5,482.9z"/>
		</g>
		<g id="g4183" transform="translate(353.9688,362.5615)">
			<path id="path4185" class="st3" d="M-358.7,485.3c0,0.6,0,1.2,0,1.6h0.8l0-1h0c0.2,0.7,0.8,1.2,1.5,1.2c0.1,0,0.2,0,0.3,0v-0.9
				c-0.1,0-0.2,0-0.3,0c-0.7,0-1.2-0.5-1.3-1.2c0-0.1,0-0.3,0-0.4v-2.8h-1V485.3z"/>
		</g>
		<g id="g4187" transform="translate(361.7861,360.749)">
			<path id="path4189" class="st3" d="M-362.2,486.1c0-1.2,0.7-2,1.6-2c0.9,0,1.6,0.9,1.6,2c0,0.9-0.4,2-1.6,2
				C-361.7,488.1-362.2,487.1-362.2,486.1 M-358,486.1c0-1.9-1.4-2.8-2.6-2.8c-1.4,0-2.5,1-2.5,2.7c0,1.7,1.2,2.8,2.6,2.8
				C-359.1,488.8-358,487.7-358,486.1"/>
		</g>
		<g id="g4191" transform="translate(371.9873,362.9561)">
			<path id="path4193" class="st3" d="M-366.8,485.1c0,0.6,0,1,0,1.4h0.8l0.1-0.9h0c0.3,0.5,0.9,1,1.7,1c0.7,0,1.9-0.4,1.9-2.2v-3.1
				h-1v3c0,0.8-0.3,1.6-1.2,1.6c-0.6,0-1.1-0.4-1.3-1c0-0.1-0.1-0.3-0.1-0.4v-3.2h-1V485.1z"/>
		</g>
	</g>
</g>
</svg>
