<?xml version="1.0" encoding="utf-8"?>
<!-- Generator: Adobe Illustrator 25.0.1, SVG Export Plug-In . SVG Version: 6.00 Build 0)  -->
<svg version="1.1" id="Layer_1" xmlns="http://www.w3.org/2000/svg" xmlns:xlink="http://www.w3.org/1999/xlink" x="0px" y="0px"
	 width="168px" height="112px" viewBox="0 0 168 112" style="enable-background:new 0 0 168 112;" xml:space="preserve">
<style type="text/css">
	.st0{fill:#FFFFFF;}
	.st1{fill:#E31F28;}
</style>
<g>
	<path class="st0" d="M61.7,22.8c-18.3,0-33.2,14.9-33.2,33.1s14.9,33.2,33.2,33.2h44.6c18.3,0,33.2-14.9,33.2-33.2
		c0-18.3-14.9-33.2-33.2-33.2L61.7,22.8L61.7,22.8z"/>
	<path d="M106.3,89.8H61.7C43,89.8,27.8,74.7,27.8,56c0-18.6,15.2-33.8,33.8-33.8h44.6c18.6,0,33.8,15.2,33.8,33.8
		C140.2,74.6,125,89.8,106.3,89.8 M61.7,22.8c-18.3,0-33.2,14.9-33.2,33.1s14.9,33.2,33.2,33.2h44.6c18.3,0,33.2-14.9,33.2-33.2
		c0-18.3-14.9-33.2-33.2-33.2L61.7,22.8L61.7,22.8z"/>
	<path class="st1" d="M114.1,54L129,71.6c3.1-4.4,4.9-9.8,4.9-15.6c0-6.1-2-11.8-5.4-16.4L114.1,54z"/>
	<path class="st1" d="M72.1,38.1c11.1,0,19.4,2.8,20.3,12.2L104,38.1h23.2c-5.1-5.9-12.6-9.7-20.9-9.7H61.7
		c-8.4,0-15.9,3.8-20.9,9.7H72.1z"/>
	<path class="st1" d="M53.8,49.9l-4,10.9h16c4.7,0,6.2-2,7.2-5.7c1.1-3.7-1.6-5.2-4.8-5.2H53.8L53.8,49.9z"/>
	<path class="st1" d="M104.1,73.1L91.8,57.5C89.5,68.2,82,73.1,68,73.1H40.1c5,6.3,12.8,10.4,21.6,10.4h44.6
		c8.7,0,16.5-4.1,21.5-10.4H104.1z"/>
</g>
</svg>
