<svg id="Layer_1" data-name="Layer 1" xmlns="http://www.w3.org/2000/svg" viewBox="0 0 168 112"><defs><style>.cls-1{fill:none;}.cls-2{fill:#6c6bbd;}.cls-3{fill:#d32011;}.cls-4{fill:#0099df;}.cls-5{fill:#110f0d;}</style></defs><title>maestro</title><rect class="cls-1" width="168" height="112"/><polygon class="cls-2" points="96.53 70.13 72.47 70.13 72.47 26.88 96.53 26.88 96.53 70.13"/><path class="cls-3" d="M74,48.51A27.46,27.46,0,0,1,84.5,26.88a27.51,27.51,0,1,0,0,43.25A27.46,27.46,0,0,1,74,48.51"/><path class="cls-4" d="M129,48.51A27.5,27.5,0,0,1,84.5,70.13a27.51,27.51,0,0,0,0-43.25A27.5,27.5,0,0,1,129,48.51"/><path class="cls-5" d="M104.68,82.35a3.39,3.39,0,0,1,1.13.2L105.32,84a2.57,2.57,0,0,0-1-.18c-1,0-1.56.67-1.56,1.88v4.1h-1.59v-7.3h1.57v0.89a2.16,2.16,0,0,1,1.93-1.07h0ZM98.8,84h-2.6v3.3a1,1,0,0,0,1.05,1.22,2.93,2.93,0,0,0,1.4-.41l0.46,1.36a3.73,3.73,0,0,1-2,.57c-1.88,0-2.54-1-2.54-2.71V84H93.12V82.53H94.6V80.32h1.6v2.22h2.6V84h0ZM78.47,85.54a1.88,1.88,0,0,1,1.94-1.77,1.81,1.81,0,0,1,1.85,1.77H78.47Zm5.44,0.64c0-2.28-1.42-3.83-3.47-3.83A3.84,3.84,0,0,0,80.55,90a4.44,4.44,0,0,0,3-1l-0.78-1.18a3.47,3.47,0,0,1-2.12.76,2,2,0,0,1-2.18-1.79h5.42c0-.2,0-0.4,0-0.61h0Zm7-1.79a4.68,4.68,0,0,0-2.28-.63c-0.87,0-1.39.32-1.39,0.86s0.55,0.63,1.24.72l0.75,0.11c1.59,0.23,2.55.9,2.55,2.19S90.54,90,88.43,90a5.27,5.27,0,0,1-3.16-.95L86,87.83a3.89,3.89,0,0,0,2.43.76c1.08,0,1.66-.32,1.66-0.89,0-.41-0.41-0.64-1.28-0.76l-0.75-.11c-1.64-.23-2.52-1-2.52-2.15,0-1.45,1.19-2.34,3-2.34a5.46,5.46,0,0,1,3,.76L90.89,84.4h0Zm19.59-.54a2.41,2.41,0,0,0-.91.17,2.19,2.19,0,0,0-.73.48,2.24,2.24,0,0,0-.48.74,2.68,2.68,0,0,0,0,1.91,2.24,2.24,0,0,0,.48.74,2.19,2.19,0,0,0,.73.48,2.51,2.51,0,0,0,1.82,0,2.18,2.18,0,0,0,.73-0.48,2.22,2.22,0,0,0,.49-0.74,2.68,2.68,0,0,0,0-1.91,2.22,2.22,0,0,0-.49-0.74,2.18,2.18,0,0,0-.73-0.48,2.4,2.4,0,0,0-.91-0.17h0Zm0-1.51a4.11,4.11,0,0,1,1.57.3,3.82,3.82,0,0,1,1.25.81,3.71,3.71,0,0,1,.83,1.22,4.07,4.07,0,0,1,0,3.06,3.72,3.72,0,0,1-.83,1.22,3.85,3.85,0,0,1-1.25.81,4.36,4.36,0,0,1-3.15,0,3.81,3.81,0,0,1-1.25-.81,3.77,3.77,0,0,1-.82-1.22,4.07,4.07,0,0,1,0-3.06,3.72,3.72,0,0,1,2.07-2,4.11,4.11,0,0,1,1.57-.3h0Zm-41.3,3.83a2.21,2.21,0,1,1,2.22,2.34,2.19,2.19,0,0,1-2.22-2.34h0Zm5.91,0V82.53H73.51v0.89a2.77,2.77,0,0,0-2.31-1.07,3.84,3.84,0,0,0,0,7.67,2.77,2.77,0,0,0,2.31-1.07v0.89H75.1V86.18Zm-9,3.65V85.25a2.72,2.72,0,0,0-2.87-2.9,2.83,2.83,0,0,0-2.57,1.3,2.68,2.68,0,0,0-2.41-1.3,2.42,2.42,0,0,0-2.14,1.08v-0.9H54.57v7.3h1.6v-4A1.71,1.71,0,0,1,58,83.85c1.05,0,1.59.69,1.59,1.93v4.06h1.6v-4a1.72,1.72,0,0,1,1.79-1.94c1.09,0,1.61.69,1.61,1.93v4.06h1.6Z"/></svg>