<?xml version="1.0" encoding="utf-8"?>
<!-- Generator: Adobe Illustrator 25.0.1, SVG Export Plug-In . SVG Version: 6.00 Build 0)  -->
<svg version="1.1" id="Layer_1" xmlns="http://www.w3.org/2000/svg" xmlns:xlink="http://www.w3.org/1999/xlink" x="0px" y="0px"
	 width="168px" height="112px" viewBox="0 0 168 112" style="enable-background:new 0 0 168 112;" xml:space="preserve">
<style type="text/css">
	.st0{fill:none;}
	.st1{fill:#FFFFFF;}
	.st2{fill:#659AD2;}
</style>
<rect class="st0" width="168" height="112"/>
<g>
	<path class="st1" d="M85.4,93.2c23.1-0.3,32-6.9,33.7-28.9c0.4-5,0.3-8.3,0.3-8.3s0-3.3-0.3-8.3c-1.7-22-10.5-28.6-33.7-28.9
		c-0.4,0-0.7,0-1.1,0h-0.6c-0.4,0-0.7,0-1.1,0c-23.2,0.3-32,6.9-33.7,28.9c-0.4,5-0.3,8.3-0.3,8.3s0,3.3,0.3,8.3
		c1.7,22,10.5,28.6,33.7,28.9C83,93.2,85,93.2,85.4,93.2"/>
	<path class="st2" d="M63.5,77.1c0,0,3.8,0.2,6.4-3c2-2.5,2.2-4.9,2.2-5.5c0-0.2,0.1-8.4,0.1-8.7l0,0l-23.5,0c0,1.3,0.1,2.8,0.3,4.5
		c1.1,14.4,5.3,22.2,14.5,26L63.5,77.1L63.5,77.1z"/>
	<path class="st2" d="M49.4,47.5h22.2h0.6c0,0,0.4-15.5,4.1-20c6.9-8.4,14.6-8,16.6-8.2c0.2,0,0.4,0,0.6,0c-2.5-0.3-5.2-0.4-8.1-0.4
		c-0.4,0-0.7,0-1.1,0h-0.6c-0.4,0-0.7,0-1.1,0c-23.1,0.3-32,6.9-33.6,28.7H49.4z"/>
	<path class="st2" d="M119,47.7c-1.2-16.1-6.3-24-18.1-27.1v16.4c0,0-0.1,0-0.2,0c-1.4-0.1-8.8-0.3-11.4,3.8c-1,1.5-1.4,2.8-1.7,3.9
		c0,0,0,0,0,0c0,0.2-0.1,0.3-0.1,0.4c0,0,0,0,0,0.1c0,0.1,0,0.2,0,0.4c0,0,0,0.1,0,0.1c0,0.1,0,0.2,0,0.3c0,0,0,0.1,0,0.1
		c0,0.1,0,0.2,0,0.3c0,0,0,0.1,0,0.1c0,0.1,0,0.1,0,0.2c0,0,0,0.1,0,0.1c0,0.1,0,0.1,0,0.2c0,0,0,0.1,0,0.1c0,0.1,0,0.1,0,0.1
		c0,0,0,0,0,0.1c0,0,0,0.1,0,0.1c0,0,0,0,0,0c0,0,0,0.1,0,0.1c0,0,0,0,0,0c0,0,0,0,0,0c0,0,0,0,0,0h12.7h0.6v12.3h-0.6H87.6v0h0
		v12.5c0,0-0.4,5.9-1.9,9.2c-3.5,7.5-9.3,10.7-13.5,11c-0.1,0-0.2,0-0.3,0c3.2,0.5,6.8,0.7,10.8,0.8c0.4,0,2.4,0,2.7,0
		c23.1-0.3,32-6.9,33.7-28.9c0.4-5,0.3-8.3,0.3-8.3S119.4,52.7,119,47.7z"/>
</g>
</svg>
