<svg id="Layer_1" data-name="Layer 1" xmlns="http://www.w3.org/2000/svg" xmlns:xlink="http://www.w3.org/1999/xlink" viewBox="0 0 168 112"><defs><style>.cls-1{fill:none;}.cls-2{fill:#fff;}.cls-3{fill:#231f20;}.cls-4{fill:#f58220;}.cls-5{fill:url(#radial-gradient);}.cls-6{fill:#001722;}</style><radialGradient id="radial-gradient" cx="79.94" cy="-438.6" r="7.29" gradientTransform="translate(6.42 486.08)" gradientUnits="userSpaceOnUse"><stop offset="0.01" stop-color="#ffeee0"/><stop offset="0.11" stop-color="#fee9d7"/><stop offset="0.28" stop-color="#fddbbf"/><stop offset="0.49" stop-color="#fbc597"/><stop offset="0.74" stop-color="#f8a560"/><stop offset="1" stop-color="#f48120"/></radialGradient></defs><title>discover</title><rect class="cls-1" width="168" height="112"/><rect class="cls-2" x="34.36" y="24.4" width="99.27" height="63.23"/><path class="cls-3" d="M133.64,24H34V88H134V24h-0.36Zm-0.36.72c0,0.71,0,61.8,0,62.51H34.73c0-.71,0-61.8,0-62.51h98.55Z"/><path class="cls-4" d="M133.27,59.57s-27.12,19.14-76.8,27.71h76.8V59.57Z"/><path class="cls-5" d="M86.37,40.27A7.25,7.25,0,0,0,79,47.39,7.37,7.37,0,1,0,86.37,40.27Z"/><path class="cls-6" d="M44.47,40.53h-4V54.37h3.95a7.22,7.22,0,0,0,4.94-1.6,7,7,0,0,0,2.51-5.32C51.9,43.37,48.84,40.53,44.47,40.53Zm3.16,10.39a5.11,5.11,0,0,1-3.7,1.1H43.2V42.88h0.73A5,5,0,0,1,47.62,44a4.65,4.65,0,0,1,1.49,3.44A4.73,4.73,0,0,1,47.62,50.93Z"/><rect class="cls-6" x="53.14" y="40.53" width="2.7" height="13.84"/><path class="cls-6" d="M62.44,45.84c-1.62-.6-2.1-1-2.1-1.74a1.77,1.77,0,0,1,2-1.54,2.81,2.81,0,0,1,2.18,1.12l1.41-1.84a6,6,0,0,0-4.07-1.54,4.07,4.07,0,0,0-4.32,4c0,1.91.87,2.89,3.4,3.8a10.4,10.4,0,0,1,1.87.79,1.66,1.66,0,0,1,.81,1.43,2,2,0,0,1-2.1,2,3.19,3.19,0,0,1-2.95-1.85l-1.74,1.68a5.38,5.38,0,0,0,4.79,2.64,4.47,4.47,0,0,0,4.77-4.55C66.42,48,65.51,47,62.44,45.84Z"/><path class="cls-6" d="M67.27,47.46a7.17,7.17,0,0,0,7.31,7.23A7.45,7.45,0,0,0,78,53.88V50.7a4.32,4.32,0,0,1-3.26,1.51,4.52,4.52,0,0,1-4.65-4.77,4.6,4.6,0,0,1,4.53-4.75A4.52,4.52,0,0,1,78,44.25V41.07a6.9,6.9,0,0,0-3.32-.85A7.28,7.28,0,0,0,67.27,47.46Z"/><polygon class="cls-6" points="99.84 49.83 96.14 40.53 93.2 40.53 99.07 54.73 100.52 54.73 106.5 40.53 103.58 40.53 99.84 49.83"/><polygon class="cls-6" points="107.73 54.37 115.39 54.37 115.39 52.03 110.43 52.03 110.43 48.29 115.2 48.29 115.2 45.95 110.43 45.95 110.43 42.88 115.39 42.88 115.39 40.53 107.73 40.53 107.73 54.37"/><path class="cls-6" d="M126.07,44.62c0-2.59-1.78-4.08-4.9-4.08h-4V54.37h2.7V48.81h0.35L124,54.37h3.32l-4.36-5.83A3.68,3.68,0,0,0,126.07,44.62Zm-5.42,2.29h-0.79V42.71h0.83c1.68,0,2.6.71,2.6,2.05S122.38,46.9,120.66,46.9Z"/><path class="cls-3" d="M64.69,58l3.61,3.78V58.21h0.52V63l-3.61-3.77v3.57H64.69V58Z"/><path class="cls-3" d="M64.65,58v4.88h0.61v-3.5l3.61,3.78v-5H68.26v3.51l-3.61-3.78V58Zm0.1,0.12,3.61,3.78V58.26h0.42v4.67l-3.61-3.78v3.64H64.74V58.13Z"/><path class="cls-3" d="M71.32,58.21h2.4v0.48H71.84v1.38h1.83v0.48H71.84v1.82h1.88v0.48h-2.4V58.21Z"/><path class="cls-3" d="M73.72,58.16H71.27v4.73h2.5V62.31H71.89V60.59h1.83V60H71.89V58.74h1.88V58.16h0Zm0,0.09v0.38H71.79v1.47h1.83v0.38H71.79v1.91h1.89v0.38h-2.3V58.26h2.3Z"/><path class="cls-3" d="M77.37,62.84H76.85V58.69H75.73V58.21H78.5v0.48H77.37v4.15Z"/><path class="cls-3" d="M78.5,58.16H75.68v0.58H76.8v4.15h0.61V58.74h1.13V58.16h0Zm0,0.09v0.38H77.32v4.15H76.9V58.64H75.78V58.26h2.67Z"/><path class="cls-3" d="M81.95,61.68L83.45,58l1.5,3.71,1.22-3.47h0.56l-1.78,4.87-1.5-3.73-1.5,3.73-1.77-4.87h0.56Z"/><path class="cls-3" d="M83.4,58l-1.45,3.59-1.19-3.38H80.1l1.84,5.06,1.5-3.74,1.5,3.74,1.84-5.06H86.13l-1.19,3.38-1.5-3.7ZM82,61.7l1.45-3.6,1.5,3.72,1.25-3.56h0.46l-1.71,4.69-1.5-3.72-1.5,3.72-1.71-4.69H80.7l1.25,3.56Z"/><path class="cls-3" d="M93.39,60.53A2.41,2.41,0,1,1,91,58.13,2.4,2.4,0,0,1,93.39,60.53Zm-4.31,0A1.9,1.9,0,1,0,91,58.61,1.92,1.92,0,0,0,89.08,60.52Z"/><path class="cls-3" d="M88.51,60.53A2.46,2.46,0,1,0,91,58.08,2.45,2.45,0,0,0,88.51,60.53Zm0.09,0A2.37,2.37,0,1,1,91,62.87,2.36,2.36,0,0,1,88.61,60.53Z"/><path class="cls-3" d="M89,60.52a1.95,1.95,0,1,0,1.95-2A2,2,0,0,0,89,60.52Zm0.1,0A1.85,1.85,0,1,1,91,62.39,1.86,1.86,0,0,1,89.13,60.52Z"/><path class="cls-3" d="M96.14,62.84H95.63V58.21H96.3c0.88,0,1.69.23,1.69,1.28a1.21,1.21,0,0,1-1.16,1.28l1.47,2.08H97.67l-1.4-2H96.14v2Zm0-2.49H96.3c0.58,0,1.17-.11,1.17-0.83s-0.56-.84-1.18-0.84H96.14v1.66Z"/><path class="cls-3" d="M95.63,58.16h0v4.73h0.61v-2h0.08s1.36,2,1.36,2l0.67,0h0.1l-1.49-2.1A1.25,1.25,0,0,0,98,59.49c0-.89-0.57-1.33-1.74-1.33H95.63Zm0.67,0.09c1.12,0,1.65.39,1.65,1.23a1.17,1.17,0,0,1-1.12,1.23H96.74l1.47,2.07H97.67s-1.36-2-1.36-2l-0.17,0h0v2H95.67V58.26H96.3Z"/><path class="cls-3" d="M96.14,58.64h0V60.4H96.3c0.57,0,1.22-.1,1.22-0.88s-0.63-.88-1.23-0.88H96.14Zm0.15,0.1c0.59,0,1.13.06,1.13,0.78s-0.57.78-1.12,0.78H96.19V58.74H96.3Z"/><path class="cls-3" d="M103,58.21h0.69l-2.17,2.16,2.25,2.47H103l-1.9-2.12-0.13.13v2h-0.52V58.21H101v2Z"/><path class="cls-3" d="M103.67,58.16H103l-1.9,1.92V58.16h-0.61v4.73h0.61v-2l0.08-.06L103,62.87l0.75,0h0.11l-2.29-2.52,2.23-2.21h-0.11Zm-0.12.09-2.12,2.11,2.21,2.43H103s-1.86-2.11-1.86-2.11l0,0-0.17.17s0,1.89,0,2h-0.42V58.26H101v2.05l2-2.05h0.56Z"/></svg>