<svg id="Layer_1" data-name="Layer 1" xmlns="http://www.w3.org/2000/svg" viewBox="0 0 168 112"><defs><style>.cls-1{fill:none;}.cls-2{fill:#ff5f00;}.cls-3{fill:#eb001b;}.cls-4{fill:#f79e1b;}</style></defs><title>mastercard</title><rect class="cls-1" width="168" height="112"/><path d="M55.3,90.34V85.73a2.71,2.71,0,0,0-2.92-2.92,3,3,0,0,0-2.61,1.31,2.69,2.69,0,0,0-2.46-1.31,2.48,2.48,0,0,0-2.15,1.08V83H43.54v7.38h1.61V86.27a1.67,1.67,0,0,1,1.77-1.92c1.08,0,1.61.69,1.61,1.92v4.07h1.61V86.27a1.7,1.7,0,0,1,1.77-1.92c1.08,0,1.61.69,1.61,1.92v4.07H55.3ZM79.21,83H76.59V80.73H75V83H73.52v1.46H75v3.38c0,1.69.69,2.69,2.54,2.69a4.3,4.3,0,0,0,2-.54l-0.46-1.38a2.53,2.53,0,0,1-1.38.38,1,1,0,0,1-1.08-1.23V84.42h2.61V83h0Zm13.68-.15A2.17,2.17,0,0,0,91,83.88V83H89.35v7.38H91V86.19c0-1.23.54-1.92,1.54-1.92a4.5,4.5,0,0,1,1,.15L94,82.89a5.08,5.08,0,0,0-1.08-.08h0Zm-20.68.77a5.28,5.28,0,0,0-3-.77c-1.85,0-3.08.92-3.08,2.38,0,1.23.92,1.92,2.54,2.15l0.77,0.08c0.85,0.15,1.31.38,1.31,0.77,0,0.54-.62.92-1.69,0.92a4.24,4.24,0,0,1-2.46-.77l-0.77,1.23A5.44,5.44,0,0,0,69,90.5c2.15,0,3.38-1,3.38-2.38s-1-2-2.54-2.23l-0.77-.08c-0.69-.08-1.23-0.23-1.23-0.69s0.54-.85,1.38-0.85a5.54,5.54,0,0,1,2.31.62l0.69-1.31h0Zm42.9-.77a2.17,2.17,0,0,0-1.92,1.08V83h-1.61v7.38h1.61V86.19c0-1.23.54-1.92,1.54-1.92a4.5,4.5,0,0,1,1,.15l0.46-1.54a5.08,5.08,0,0,0-1.08-.08h0ZM94.5,86.65a3.69,3.69,0,0,0,3.92,3.84,3.83,3.83,0,0,0,2.61-.85l-0.77-1.31a3.11,3.11,0,0,1-1.92.69,2.18,2.18,0,0,1-2.23-2.38,2.27,2.27,0,0,1,2.23-2.38,3.11,3.11,0,0,1,1.92.69L101,83.65a3.83,3.83,0,0,0-2.61-.85,3.69,3.69,0,0,0-3.92,3.84h0Zm14.91,0V83H107.8v0.92a2.78,2.78,0,0,0-2.31-1.08,3.85,3.85,0,0,0,0,7.69,2.59,2.59,0,0,0,2.31-1.08v0.92h1.61V86.65Zm-5.92,0a2.23,2.23,0,1,1,4.46,0,2.23,2.23,0,1,1-4.46,0h0ZM84.2,82.81a3.85,3.85,0,0,0,.08,7.69,4.7,4.7,0,0,0,3-1l-0.77-1.15a3.67,3.67,0,0,1-2.15.77,2.07,2.07,0,0,1-2.23-1.77h5.46V86.73c0.08-2.38-1.31-3.92-3.38-3.92h0Zm0,1.38A1.8,1.8,0,0,1,86,86H82.2a2,2,0,0,1,2-1.77h0Zm40.05,2.46V80h-1.61v3.84a2.78,2.78,0,0,0-2.31-1.08,3.85,3.85,0,0,0,0,7.69,2.59,2.59,0,0,0,2.31-1.08v0.92h1.61V86.65Zm-5.92,0a2.23,2.23,0,1,1,4.46,0,2.23,2.23,0,1,1-4.46,0h0Zm-54,0V83H62.75v0.92a2.78,2.78,0,0,0-2.31-1.08,3.85,3.85,0,0,0,0,7.69,2.59,2.59,0,0,0,2.31-1.08v0.92h1.61V86.65Zm-6,0a2.23,2.23,0,1,1,4.46,0A2.23,2.23,0,1,1,58.37,86.65Z"/><rect class="cls-2" x="71.67" y="26.92" width="24.22" height="43.51"/><path class="cls-3" d="M73.21,48.68A27.75,27.75,0,0,1,83.74,26.92a27.68,27.68,0,1,0,0,43.51A27.63,27.63,0,0,1,73.21,48.68Z"/><path class="cls-4" d="M128.56,48.68A27.65,27.65,0,0,1,83.82,70.43a27.74,27.74,0,0,0,0-43.51A27.65,27.65,0,0,1,128.56,48.68Z"/></svg>