<?xml version="1.0" encoding="utf-8"?>
<!-- Generator: Adobe Illustrator 25.0.1, SVG Export Plug-In . SVG Version: 6.00 Build 0)  -->
<svg version="1.1" id="Layer_1" xmlns="http://www.w3.org/2000/svg" xmlns:xlink="http://www.w3.org/1999/xlink" x="0px" y="0px"
	 width="168px" height="112px" viewBox="0 0 168 112" style="enable-background:new 0 0 168 112;" xml:space="preserve">
<style type="text/css">
	.st0{fill:none;}
	.st1{fill:#1A1F71;}
</style>
<rect class="st0" width="168" height="112"/>
<g>
	<path class="st1" d="M70.7,32L56.2,66.6h-9.5L39.6,39c-0.4-1.7-0.8-2.3-2.1-3c-2.2-1.2-5.7-2.3-8.8-2.9l0.2-1h15.2
		c1.9,0,3.7,1.3,4.1,3.5l3.8,20L61.3,32H70.7z M83.5,32l-7.4,34.6h-8.9L74.5,32H83.5z M107.7,55.3c0-9.1-12.6-9.6-12.5-13.7
		c0-1.2,1.2-2.6,3.8-2.9c1.3-0.2,4.8-0.3,8.8,1.5l1.6-7.3c-2.2-0.8-4.9-1.5-8.4-1.5c-8.8,0-15.1,4.7-15.1,11.4
		c-0.1,5,4.4,7.8,7.8,9.4c3.5,1.7,4.7,2.8,4.6,4.3c0,2.3-2.8,3.3-5.4,3.4c-4.5,0.1-7.1-1.2-9.2-2.2l-1.6,7.6c2.1,1,6,1.8,9.9,1.8
		C101.6,67.1,107.7,62.5,107.7,55.3L107.7,55.3z M131.1,66.6h8.3L132.1,32h-7.6c-1.7,0-3.2,1-3.8,2.5l-13.4,32.1h9.4l1.9-5.2H130
		L131.1,66.6z M121.1,54.3l4.7-13l2.7,13H121.1z M94.9,76.1h-3.6v3.4h4.1v1h-5.3v-9.4h5.1v1h-3.9v3h3.6V76.1z M97.2,70.6h1.2v9.9
		h-1.2V70.6z M101.5,77.3c0,1.7,1.1,2.3,2.3,2.3c0.9,0,1.4-0.2,1.9-0.3l0.2,0.9c-0.4,0.2-1.2,0.4-2.3,0.4c-2.1,0-3.3-1.4-3.3-3.4
		s1.2-3.6,3.2-3.6c2.2,0,2.8,1.9,2.8,3.2c0,0.3,0,0.4,0,0.6H101.5L101.5,77.3z M105.1,76.5c0-0.8-0.3-2-1.7-2c-1.3,0-1.8,1.1-1.9,2
		H105.1z M113,80.3c-0.3,0.2-1,0.4-1.9,0.4c-2,0-3.4-1.4-3.4-3.4c0-2.1,1.4-3.6,3.6-3.6c0.7,0,1.4,0.2,1.7,0.4l-0.3,0.9
		c-0.3-0.2-0.8-0.3-1.4-0.3c-1.5,0-2.4,1.2-2.4,2.5c0,1.6,1,2.5,2.3,2.5c0.7,0,1.2-0.2,1.5-0.3L113,80.3z M116.4,72.1v1.6h1.8v0.9
		h-1.8v3.6c0,0.8,0.2,1.3,0.9,1.3c0.3,0,0.5,0,0.7-0.1l0.1,0.9c-0.2,0.1-0.6,0.2-1.1,0.2c-0.6,0-1-0.2-1.3-0.5
		c-0.3-0.4-0.5-1-0.5-1.8v-3.7h-1v-0.9h1v-1.3L116.4,72.1z M119.9,75.9c0-0.8,0-1.5-0.1-2.1h1.1l0.1,1.3h0c0.3-0.9,1.1-1.5,1.9-1.5
		c0.1,0,0.2,0,0.3,0v1.2c-0.1,0-0.3,0-0.4,0c-0.9,0-1.5,0.6-1.6,1.6c0,0.2,0,0.4,0,0.6v3.6h-1.2V75.9z M130.8,77.1
		c0,2.5-1.7,3.6-3.4,3.6c-1.8,0-3.2-1.3-3.2-3.5c0-2.2,1.5-3.6,3.3-3.6C129.4,73.6,130.8,75,130.8,77.1z M125.4,77.1
		c0,1.5,0.8,2.6,2,2.6c1.2,0,2-1.1,2-2.6c0-1.1-0.6-2.6-2-2.6C126,74.5,125.4,75.9,125.4,77.1z M132.6,75.6c0-0.7,0-1.3-0.1-1.8h1.1
		l0.1,1.1h0c0.3-0.6,1.1-1.3,2.2-1.3c0.9,0,2.4,0.6,2.4,2.9v4h-1.2v-3.9c0-1.1-0.4-2-1.6-2c-0.8,0-1.4,0.6-1.6,1.3
		c-0.1,0.2-0.1,0.4-0.1,0.6v4.1h-1.2V75.6z"/>
</g>
</svg>
