<svg id="Layer_1" data-name="Layer 1" xmlns="http://www.w3.org/2000/svg" xmlns:xlink="http://www.w3.org/1999/xlink" viewBox="0 0 168 112"><defs><style>.cls-1{fill:none;}.cls-2{fill:url(#Blue_Gradient_01);}</style><linearGradient id="Blue_Gradient_01" x1="22" y1="55" x2="139.66" y2="55" gradientUnits="userSpaceOnUse"><stop offset="0" stop-color="#241f5d"/><stop offset="1" stop-color="#034ea1"/></linearGradient></defs><title>visa</title><rect class="cls-1" width="168" height="112"/><path class="cls-2" d="M66.67,36.67L51.27,73.43h-10L33.64,44.09c-0.46-1.81-.86-2.47-2.26-3.23A39.76,39.76,0,0,0,22,37.74l0.22-1.07H38.4a4.43,4.43,0,0,1,4.38,3.75l4,21.27,9.9-25h10Zm39.38,24.75c0-9.7-13.41-10.23-13.32-14.57,0-1.32,1.28-2.72,4-3.08a18,18,0,0,1,9.37,1.64l1.67-7.79A25.54,25.54,0,0,0,98.91,36c-9.4,0-16,5-16.06,12.15-0.06,5.29,4.72,8.24,8.32,10s4.94,3,4.93,4.57c0,2.47-3,3.55-5.69,3.6A19.89,19.89,0,0,1,80.65,64L78.93,72A28.79,28.79,0,0,0,89.5,74c10,0,16.52-4.93,16.55-12.58m24.82,12h8.79L132,36.67h-8.12a4.33,4.33,0,0,0-4,2.7L105.56,73.43h10l2-5.49h12.2Zm-10.61-13,5-13.8,2.88,13.8h-7.89Zm-40-23.73L72.4,73.43H62.89l7.87-36.75h9.51Z"/></svg>