<svg id="Layer_1" data-name="Layer 1" xmlns="http://www.w3.org/2000/svg" viewBox="0 0 168 112"><defs><style>.cls-1{fill:none;}.cls-2{fill:#fff;}.cls-3{fill:#016fd0;fill-rule:evenodd;}</style></defs><title>amex</title><rect class="cls-1" width="168" height="112"/><rect class="cls-2" x="50" y="21.09" width="68.54" height="68.83"/><path class="cls-3" d="M119,65.67c0,1.72-1.09,2.53-3,2.53h-3.73V66.48H116a1.19,1.19,0,0,0,.75-0.17,0.73,0.73,0,0,0,.23-0.52,0.88,0.88,0,0,0-.23-0.57A1,1,0,0,0,116,65c-1.78-.06-4,0.06-4-2.47,0-1.15.75-2.41,2.76-2.41h3.85v1.72H115a1.36,1.36,0,0,0-.75.11,0.82,0.82,0,0,0-.29.63,0.63,0.63,0,0,0,.4.57,2.92,2.92,0,0,0,.75.11h1a3.26,3.26,0,0,1,2.24.63,2.48,2.48,0,0,1,.57,1.72h0Zm-8.1-1.72a3.26,3.26,0,0,0-2.24-.63h-1a2.91,2.91,0,0,1-.75-0.11,0.62,0.62,0,0,1-.4-0.57,0.67,0.67,0,0,1,.29-0.63,1.36,1.36,0,0,1,.75-0.11h3.56V60.16h-3.85c-2.07,0-2.76,1.26-2.76,2.41,0,2.53,2.24,2.41,4,2.47a1,1,0,0,1,.69.17,0.88,0.88,0,0,1,.23.57,0.73,0.73,0,0,1-.23.52,1.3,1.3,0,0,1-.75.17h-3.73V68.2h3.73c2,0,3-.8,3-2.53a2.48,2.48,0,0,0-.57-1.72h0Zm-7.35,2.59H99V64.93h4.42V63.32H99V61.82h4.54V60.16H97.11v8h6.43V66.53h0Zm-8.5-6a4.82,4.82,0,0,0-2.36-.4H88.26v8h2V65.27h2.07a1.81,1.81,0,0,1,1.38.34A2.57,2.57,0,0,1,94,67.22v1h1.9V66.65a2.65,2.65,0,0,0-.29-1.49,2.25,2.25,0,0,0-1-.69A2.21,2.21,0,0,0,96,62.34a1.8,1.8,0,0,0-1-1.78h0Zm-10.92-.4H78L75.51,62.8l-2.36-2.64H65.4v8H73l2.47-2.64,2.36,2.64H81.6V65.5H84c1.67,0,3.33-.46,3.33-2.7s-1.72-2.64-3.22-2.64h0Zm9.36,3.33a2.38,2.38,0,0,1-.92.11l-2.36.06V61.82h2.36a1.56,1.56,0,0,1,.92.17,0.73,0.73,0,0,1,.4.69,1,1,0,0,1-.4.8h0Zm-9.36.4H81.6V61.82h2.53a1,1,0,0,1,1.15,1,1,1,0,0,1-1.15,1.09h0Zm-7.41.29,3-3.16v6.49l-3-3.33h0Zm-4.65,2.36H67.29V64.93h4.25V63.32H67.29V61.82h4.83l2.13,2.36-2.18,2.36h0Zm41.6-12.18H110.9l-3.62-6v6h-3.91l-0.75-1.78h-4l-0.75,1.78H95.62a4.16,4.16,0,0,1-2.82-.92,4.21,4.21,0,0,1-1-3,4.15,4.15,0,0,1,1-3.16,3.9,3.9,0,0,1,2.93-.92h1.84V48H95.79a2,2,0,0,0-1.49.46,2.6,2.6,0,0,0-.52,1.84,2.87,2.87,0,0,0,.52,1.9,1.91,1.91,0,0,0,1.32.4h0.86l2.76-6.32h2.87l3.22,7.58V46.31h3l3.39,5.57V46.31h2v8h0Zm-22.81-8h-2v8h2v-8h0Zm-4.08.34a4.63,4.63,0,0,0-2.3-.34H80v8h1.9V51.42H84a2,2,0,0,1,1.44.34,2.44,2.44,0,0,1,.29,1.55v1h2V52.75a2.14,2.14,0,0,0-.34-1.44,2.41,2.41,0,0,0-.92-0.69,2.28,2.28,0,0,0,1.38-2.13,2,2,0,0,0-1-1.84h0Zm-8.1,6H74.19V51.08h4.42V49.41H74.19V48h4.48V46.31H72.23v8h6.43V52.69h0ZM70.8,46.31H67.64l-2.36,5.46-2.53-5.46h-3.1V53.9l-3.27-7.58H53.5l-3.45,8h2.07l0.75-1.78h4l0.75,1.78h3.91V48l2.82,6.32H66L68.84,48v6.32h2v-8h0Zm31.14,4.54-1.32-3.16-1.32,3.16h2.64ZM85.28,49.59a1.76,1.76,0,0,1-1,.17H81.94V48H84.3a2.54,2.54,0,0,1,1,.11,0.85,0.85,0,0,1,.34.75,0.79,0.79,0,0,1-.34.75h0ZM53.56,50.85l1.32-3.16,1.32,3.16H53.56Zm65-29.76H50V50l2.36-5.34h5L58,46V44.7H63.9l1.32,2.87,1.26-2.87H85.16a3.39,3.39,0,0,1,2.18.63V44.7h5.11v0.63a6.85,6.85,0,0,1,3.22-.63h7.41L103.78,46V44.7h5.46L110,46V44.7h5.34V56H110l-1-1.72V56h-6.72l-0.75-1.84H99.81L99.06,56h-3.5a6.88,6.88,0,0,1-3.1-.69V56H84.13V53.38c0-.34-0.06-0.4-0.29-0.4H83.55v3H67.47V54.53L66.89,56H63.5l-0.57-1.38V56H56.43l-0.69-1.84H54.08L53.33,56H50v34h68.54V69.29a7,7,0,0,1-2.82.52h-5V69.12a4.44,4.44,0,0,1-2.59.69H92.4V67.22c0-.34-0.06-0.34-0.34-0.34H91.77v2.93H86.6v-3a6.32,6.32,0,0,1-2.7.4H83.32v2.64H77l-1.49-1.72-1.67,1.72H63.67V58.55H74l1.49,1.72,1.61-1.72h7a4.33,4.33,0,0,1,2.7.69V58.55H93a4.92,4.92,0,0,1,2.64.69V58.55H105v0.69a3.82,3.82,0,0,1,2.36-.69h5.23v0.69a4.15,4.15,0,0,1,2.41-.69h3.56V21.09h0Z"/></svg>