<svg id="Layer_1" data-name="Layer 1" xmlns="http://www.w3.org/2000/svg" viewBox="0 0 168 112"><defs><style>.cls-1{fill:none;}.cls-2{fill:#fff;}.cls-3{fill:#004a97;}.cls-4{fill:#231f20;}</style></defs><title>dinersclub</title><rect class="cls-1" width="168" height="112"/><path class="cls-2" d="M129.46,84.24a6.3,6.3,0,0,1-6.37,6.22H41.91a6.3,6.3,0,0,1-6.37-6.22V28.13a6.3,6.3,0,0,1,6.37-6.22h81.19a6.3,6.3,0,0,1,6.37,6.22V84.24Z"/><path class="cls-3" d="M36.08,28.13V84.24a5.76,5.76,0,0,0,5.83,5.68h81.19a5.76,5.76,0,0,0,5.83-5.68V28.13a5.76,5.76,0,0,0-5.83-5.68H41.91a5.76,5.76,0,0,0-5.83,5.68M41.91,91A6.84,6.84,0,0,1,35,84.24V28.13a6.84,6.84,0,0,1,6.91-6.76h81.19A6.84,6.84,0,0,1,130,28.13V84.24A6.84,6.84,0,0,1,123.09,91H41.91Z"/><path class="cls-4" d="M45.14,74.23c0,1.32.94,1.47,1.78,1.47,3.69,0,4.91-2.79,4.91-5.33a5.14,5.14,0,0,0-5.35-5.5c-0.7,0-1,0-1.33.07v9.3Zm-1.68-8c0-1.54-.8-1.44-1.57-1.45V64.31c0.67,0,1.35,0,2,0s1.69,0,3,0c4.43,0,6.84,3,6.84,6,0,1.69-1,5.95-7,5.95-0.87,0-1.68,0-2.48,0s-1.52,0-2.29,0V75.8c1-.1,1.52-0.14,1.57-1.3V66.21Z"/><path class="cls-4" d="M56.14,65.8a0.84,0.84,0,0,1,0-1.68,0.84,0.84,0,0,1,.84.82,0.85,0.85,0,0,1-.84.85m-1.83,10h0.32c0.48,0,.82,0,0.82-0.57V70.6a1.12,1.12,0,0,0-.89-1.2V69.13c0.8-.24,1.76-0.56,1.83-0.62a0.6,0.6,0,0,1,.31-0.09c0.08,0,.12.1,0.12,0.24v6.56c0,0.57.38,0.57,0.86,0.57H58v0.44c-0.58,0-1.18,0-1.79,0s-1.23,0-1.86,0V75.8Z"/><path class="cls-4" d="M59.59,70.7c0-.63-0.19-0.8-1-1.13V69.25a23.2,23.2,0,0,0,2.26-.82c0.05,0,.1,0,0.1.17v1.11a5,5,0,0,1,3-1.28c1.45,0,2,1.06,2,2.39v4.41c0,0.57.38,0.57,0.86,0.57H67v0.44c-0.6,0-1.2,0-1.81,0s-1.23,0-1.85,0V75.8h0.31c0.48,0,.82,0,0.82-0.57V70.81a1.37,1.37,0,0,0-1.57-1.45,4.55,4.55,0,0,0-2,.82v5.06c0,0.57.38,0.57,0.86,0.57h0.31v0.44c-0.6,0-1.2,0-1.81,0s-1.23,0-1.85,0V75.8h0.31c0.48,0,.82,0,0.82-0.57V70.7Z"/><path class="cls-4" d="M71.37,71a0.39,0.39,0,0,0,.48-0.43A1.45,1.45,0,0,0,70.36,69a2.06,2.06,0,0,0-2,2h3Zm-3,.55a4.2,4.2,0,0,0,0,1c0.1,1.62,1.15,3,2.51,3a3.28,3.28,0,0,0,2.31-1.14l0.24,0.24a4,4,0,0,1-3.16,1.93c-2.72,0-3.27-2.63-3.27-3.73,0-3.35,2.26-4.34,3.45-4.34a2.72,2.72,0,0,1,2.89,2.68,2,2,0,0,1,0,.31l-0.15.1h-4.8Z"/><path class="cls-4" d="M73.71,75.8h0.46c0.48,0,.82,0,0.82-0.57v-4.8a1.08,1.08,0,0,0-.89-0.77V69.4c1.25-.53,1.93-1,2.09-1s0.15,0.05.15,0.22v1.54h0c0.43-.67,1.15-1.76,2.19-1.76a0.93,0.93,0,0,1,1,.91,0.83,0.83,0,0,1-.8.87c-0.53,0-.53-0.41-1.13-0.41a1.45,1.45,0,0,0-1.25,1.42v4c0,0.57.34,0.57,0.82,0.57h1v0.44c-0.94,0-1.66,0-2.39,0s-1.42,0-2,0V75.8Z"/><path class="cls-4" d="M80.29,73.87A2.25,2.25,0,0,0,82.45,76a1.21,1.21,0,0,0,1.38-1.21c0-2-3.73-1.37-3.73-4.12a2.35,2.35,0,0,1,2.65-2.19,4.49,4.49,0,0,1,1.95.5l0.12,1.74H84.43A1.75,1.75,0,0,0,82.57,69a1.2,1.2,0,0,0-1.33,1.13c0,2,4,1.38,4,4.07,0,1.13-.91,2.33-2.94,2.33a4.5,4.5,0,0,1-2.08-.58L80,74Z"/><path class="cls-4" d="M100.64,67.4h-0.43c-0.33-2-1.74-2.8-3.66-2.8S91.73,65.92,91.73,70c0,3.45,2.46,5.93,5.09,5.93a3.48,3.48,0,0,0,3.44-3l0.39,0.1-0.39,2.5a9.6,9.6,0,0,1-3.78.91c-4,0-6.53-2.58-6.53-6.43a6.29,6.29,0,0,1,6.48-6,12.33,12.33,0,0,1,4,.91Z"/><path class="cls-4" d="M101.25,75.8h0.32c0.48,0,.82,0,0.82-0.57V65.71c0-1.11-.26-1.15-0.91-1.33V64.1a10.83,10.83,0,0,0,1.76-.74,1.82,1.82,0,0,1,.37-0.19c0.1,0,.14.1,0.14,0.24V75.23c0,0.57.38,0.57,0.85,0.57h0.29v0.44c-0.58,0-1.18,0-1.79,0s-1.23,0-1.86,0V75.8Z"/><path class="cls-4" d="M112.23,75.3c0,0.31.19,0.32,0.48,0.32l0.69,0V76a17.29,17.29,0,0,0-2.46.53l-0.09-.05V75.06a4.62,4.62,0,0,1-3,1.44,1.84,1.84,0,0,1-1.88-2V70.09c0-.45-0.07-0.87-1-1V68.81c0.62,0,2-.12,2.2-0.12s0.19,0.12.19,0.5v4.41c0,0.51,0,2,1.49,2a3.82,3.82,0,0,0,2.07-1v-4.6c0-.34-0.82-0.53-1.43-0.7V68.93c1.54-.1,2.5-0.24,2.67-0.24s0.14,0.12.14,0.31V75.3Z"/><path class="cls-4" d="M115.63,74.31a1.84,1.84,0,0,0,1.76,1.74c1.83,0,2.6-1.8,2.6-3.32,0-1.85-1.4-3.38-2.73-3.38a2.63,2.63,0,0,0-1.63.8v4.15Zm0-4.65a4.33,4.33,0,0,1,2.55-1.23A3.33,3.33,0,0,1,121.36,72a4.32,4.32,0,0,1-4.09,4.48,5,5,0,0,1-2.38-.6l-0.51.39L114,76.11a20.08,20.08,0,0,0,.24-3V65.71c0-1.11-.26-1.15-0.91-1.33V64.1a10.73,10.73,0,0,0,1.76-.74,1.84,1.84,0,0,1,.38-0.19c0.1,0,.14.1,0.14,0.24v6.24Z"/><path class="cls-4" d="M41.87,86.18H42c0.33,0,.69,0,0.69-0.53V80.78c0-.48-0.35-0.53-0.69-0.53H41.87V80c0.36,0,.92,0,1.38,0s1,0,1.46,0v0.28H44.58c-0.33,0-.69,0-0.69.53v4.87c0,0.48.35,0.53,0.69,0.53h0.13v0.28c-0.45,0-1,0-1.47,0s-1,0-1.37,0V86.18Z"/><path class="cls-4" d="M44.67,86.42v-0.2H44.58a0.59,0.59,0,0,1-.73-0.57V80.78a0.58,0.58,0,0,1,.73-0.57h0.09V80c-0.43,0-1,0-1.42,0s-1,0-1.34,0v0.2H42a0.58,0.58,0,0,1,.73.57v4.87a0.58,0.58,0,0,1-.73.57H41.92v0.2c0.36,0,.89,0,1.33,0s1,0,1.43,0m0,0.08c-0.45,0-1,0-1.47,0s-1,0-1.37,0h0V86.14H42c0.34,0,.64,0,0.65-0.49V80.78c0-.46-0.31-0.48-0.65-0.49H41.83V79.93h0c0.37,0,.92,0,1.38,0s1,0,1.46,0h0v0.36H44.58c-0.34,0-.65,0-0.65.49v4.87c0,0.45.31,0.48,0.65,0.49h0.17V86.5h0Z"/><path class="cls-4" d="M51.1,84.63l0,0V81.12a0.77,0.77,0,0,0-.81-0.88h-0.2V80c0.44,0,.87,0,1.3,0s0.76,0,1.14,0v0.28H52.42c-0.39,0-.83.07-0.83,1.18v4.23a6.18,6.18,0,0,0,.05.94H51.29L46.5,81.26V85.1c0,0.81.16,1.09,0.87,1.09h0.16v0.28c-0.4,0-.8,0-1.2,0s-0.85,0-1.27,0V86.18H45.2c0.64,0,.84-0.44.84-1.18V81.09a0.83,0.83,0,0,0-.85-0.84H45.06V80c0.35,0,.72,0,1.07,0s0.55,0,.83,0Z"/><path class="cls-4" d="M51.08,84.61h0Zm0,0,0,0Zm0.18,1.93H51.6a6.25,6.25,0,0,1,0-.9V81.43c0-1.12.47-1.22,0.87-1.22h0.1V80c-0.37,0-.73,0-1.1,0s-0.84,0-1.26,0v0.2h0.16a0.81,0.81,0,0,1,.85.92v3.52l0,0,0,0L47,80c-0.28,0-.55,0-0.83,0s-0.69,0-1,0v0.2h0.08a0.88,0.88,0,0,1,.89.88V85c0,0.74-.21,1.22-0.88,1.22H45.11v0.2c0.4,0,.82,0,1.22,0s0.78,0,1.16,0v-0.2H47.37c-0.73,0-.91-0.32-0.91-1.13V81.16Zm0.35,0.08H51.26l-4.72-5.26V85.1c0,0.81.13,1,.83,1h0.2V86.5h0c-0.4,0-.8,0-1.2,0s-0.84,0-1.27,0h0V86.14H45.2c0.61,0,.79-0.4.8-1.14V81.09a0.8,0.8,0,0,0-.81-0.8H45V79.93h0c0.36,0,.72,0,1.07,0s0.55,0,.86,0l4.09,4.6V81.12a0.73,0.73,0,0,0-.77-0.83H50.07V79.93h0c0.44,0,.87,0,1.3,0s0.76,0,1.14,0h0v0.36H52.42c-0.38,0-.78,0-0.79,1.14v4.23a6.17,6.17,0,0,0,.06.93v0h0Z"/><path class="cls-4" d="M53.95,80.44c-0.7,0-.73.17-0.87,0.85H52.8c0-.26.08-0.52,0.11-0.79A5.55,5.55,0,0,0,53,79.7h0.22a0.45,0.45,0,0,0,.56.27h4.8c0.25,0,.48,0,0.5-0.29l0.22,0c0,0.25-.07.5-0.1,0.75s0,0.5,0,.75l-0.28.1a0.74,0.74,0,0,0-.69-0.89H56.66v4.95a0.65,0.65,0,0,0,.77.8h0.18v0.28c-0.36,0-1,0-1.52,0s-1.21,0-1.57,0V86.18H54.7c0.51,0,.77,0,0.77-0.78v-5H53.95Z"/><path class="cls-4" d="M57.61,86.5c-0.37,0-1,0-1.52,0s-1.21,0-1.57,0h0V86.14H54.7c0.51,0,.72,0,0.73-0.74V80.48H53.95V80.39h1.57v5c0,0.75-.3.82-0.81,0.82H54.56v0.2c0.37,0,1,0,1.53,0s1.11,0,1.47,0v-0.2H57.44a0.7,0.7,0,0,1-.81-0.84v-5h1.57a0.76,0.76,0,0,1,.73.88l0.2-.07c0-.24,0-0.49,0-0.73s0.06-.48.1-0.72l-0.14,0a0.43,0.43,0,0,1-.54.28H53.71a0.47,0.47,0,0,1-.54-0.27H53a5.6,5.6,0,0,1-.05.75c0,0.26-.07.5-0.1,0.75h0.2c0.12-.65.2-0.86,0.9-0.85v0.08c-0.69,0-.67.13-0.83,0.82v0H52.76v0c0-.26.08-0.52,0.11-0.79a5.24,5.24,0,0,0,.06-0.78v0h0.3v0c0.06,0.23.23,0.24,0.47,0.24h4.85c0.26,0,.45,0,0.46-0.25v0h0l0.26,0v0c0,0.25-.07.5-0.1,0.75s0,0.5,0,.75v0h0l-0.33.12V81.33a0.71,0.71,0,0,0-.65-0.86H56.71v4.91c0,0.7.29,0.75,0.73,0.76h0.22V86.5h0Z"/><path class="cls-4" d="M59.57,86.18h0.13c0.33,0,.69,0,0.69-0.53V80.78c0-.48-0.35-0.53-0.69-0.53H59.57V80c0.57,0,1.54,0,2.32,0s1.75,0,2.38,0c0,0.4,0,1,0,1.42L64,81.47a1,1,0,0,0-1.13-1.09H61.59v2.44h1.11A0.7,0.7,0,0,0,63.43,82H63.7q0,0.55,0,1.09t0,1.06l-0.28.06c-0.06-.56-0.08-0.92-0.73-0.92H61.59v2.17c0,0.61.54,0.61,1.13,0.61,1.12,0,1.61-.07,1.89-1.13L64.87,85c-0.12.49-.23,1-0.32,1.48-0.6,0-1.67,0-2.5,0s-1.95,0-2.48,0V86.18Z"/><path class="cls-4" d="M64.52,86.42c0.08-.47.19-0.94,0.3-1.41l-0.18,0c-0.28,1-.82,1.13-1.92,1.13-0.59,0-1.17,0-1.18-.65V83.24H62.7c0.65,0,.72.38,0.76,0.91l0.2,0c0-.34,0-0.69,0-1s0-.7,0-1h-0.2a0.73,0.73,0,0,1-.77.82H61.54V80.34h1.33A1,1,0,0,1,64,81.42l0.2-.05c0-.26,0-0.6,0-0.91,0-.16,0-0.31,0-0.44-0.63,0-1.58,0-2.34,0s-1.71,0-2.27,0v0.2h0.09a0.58,0.58,0,0,1,.73.57v4.87a0.59,0.59,0,0,1-.73.57H59.62v0.2c0.54,0,1.62,0,2.43,0s1.87,0,2.47,0m0,0.08c-0.6,0-1.67,0-2.5,0s-1.94,0-2.48,0h0V86.14h0.17c0.34,0,.64,0,0.65-0.49V80.78c0-.45-0.31-0.48-0.65-0.49H59.54V79.93h0c0.57,0,1.54,0,2.32,0s1.75,0,2.38,0h0v0c0,0.14,0,.3,0,0.48s0,0.67,0,.94v0h0L64,81.52v0a0.92,0.92,0,0,0-1.09-1.05H61.62v2.36h1.07c0.54,0,.63-0.28.7-0.78v0h0.36v0c0,0.36,0,.73,0,1.09s0,0.7,0,1.06v0h0l-0.32.06v0c-0.06-.57-0.07-0.88-0.69-0.89H61.62v2.13c0,0.57.49,0.56,1.1,0.57,1.12,0,1.57-.06,1.85-1.1v0h0L64.91,85v0c-0.12.49-.23,1-0.32,1.48v0h0Z"/><path class="cls-4" d="M67.31,83.11h0.45a1.23,1.23,0,0,0,1.43-1.45,1.27,1.27,0,0,0-1.36-1.36,4.59,4.59,0,0,0-.53,0v2.77ZM66.12,81a0.58,0.58,0,0,0-.66-0.71H65.29V80c0.3,0,.87,0,1.44,0s1,0,1.5,0c1.17,0,2.21.32,2.21,1.64a1.76,1.76,0,0,1-1.29,1.64l1.59,2.38a1,1,0,0,0,.9.56v0.28c-0.31,0-.61,0-0.91,0s-0.59,0-.87,0a25.76,25.76,0,0,1-1.94-3H67.31v2a0.61,0.61,0,0,0,.76.74h0.17v0.28c-0.53,0-1.07,0-1.6,0s-0.88,0-1.35,0V86.18h0.17a0.56,0.56,0,0,0,.66-0.5V81Z"/><path class="cls-4" d="M67.77,83.07a1.2,1.2,0,0,0,1.39-1.41,1.23,1.23,0,0,0-1.32-1.32,3.64,3.64,0,0,0-.49,0v2.69h0.41Zm-0.45.08h0V80.3h0a4.42,4.42,0,0,1,.53,0,1.31,1.31,0,0,1,1.4,1.4,1.28,1.28,0,0,1-1.47,1.49H67.31Zm0,0.26h0.64v0a28.79,28.79,0,0,0,1.9,3c0.28,0,.58,0,0.87,0s0.58,0,.87,0v-0.2a1.06,1.06,0,0,1-.89-0.57l-1.62-2.42,0,0a1.71,1.71,0,0,0,1.27-1.6c0-1.29-1-1.59-2.17-1.6-0.49,0-.94,0-1.5,0s-1.1,0-1.4,0v0.2h0.13a0.62,0.62,0,0,1,.7.75v4.73a0.61,0.61,0,0,1-.7.54H65.33v0.2c0.45,0,.87,0,1.31,0s1,0,1.56,0v-0.2H68.07a0.66,0.66,0,0,1-.8-0.79v-2h0Zm4.33,3.09c-0.31,0-.61,0-0.91,0s-0.58,0-.9,0a26,26,0,0,1-1.93-3H67.35v1.95c0,0.7.29,0.69,0.72,0.7h0.21V86.5h0c-0.53,0-1.07,0-1.6,0s-0.88,0-1.35,0h0V86.14h0.21a0.53,0.53,0,0,0,.62-0.46V81c0-.66-0.33-0.66-0.62-0.67H65.25V79.93h0c0.3,0,.88,0,1.44,0s1,0,1.5,0c1.17,0,2.25.33,2.26,1.68a1.78,1.78,0,0,1-1.27,1.66l1.56,2.34a1,1,0,0,0,.87.54h0V86.5h0Z"/><path class="cls-4" d="M78,84.63l0,0V81.12a0.77,0.77,0,0,0-.81-0.88H77V80c0.44,0,.86,0,1.3,0s0.76,0,1.15,0v0.28H79.28c-0.39,0-.83.07-0.83,1.18v4.23a6.16,6.16,0,0,0,.06.94H78.15l-4.79-5.34V85.1c0,0.81.16,1.09,0.87,1.09h0.16v0.28c-0.4,0-.8,0-1.2,0s-0.85,0-1.27,0V86.18h0.13c0.64,0,.84-0.44.84-1.18V81.09A0.83,0.83,0,0,0,72,80.25H71.93V80c0.35,0,.72,0,1.07,0s0.55,0,.83,0Z"/><path class="cls-4" d="M77.94,84.61h0Zm0,0,0,0Zm0.19,1.93h0.3a6.39,6.39,0,0,1,0-.9V81.43c0-1.12.47-1.22,0.87-1.22h0.1V80c-0.37,0-.73,0-1.1,0S77.43,80,77,80v0.2h0.16a0.82,0.82,0,0,1,.85.92v3.52l0,0,0,0L73.82,80c-0.28,0-.55,0-0.83,0s-0.69,0-1,0v0.2H72a0.88,0.88,0,0,1,.89.88V85c0,0.75-.21,1.22-0.88,1.22H72v0.2c0.4,0,.82,0,1.22,0s0.78,0,1.16,0v-0.2H74.23c-0.73,0-.91-0.32-0.92-1.13V81.16Zm0.35,0.08H78.12L73.4,81.37V85.1c0,0.81.13,1,.83,1h0.2V86.5h0c-0.4,0-.8,0-1.2,0s-0.85,0-1.26,0h0V86.14h0.17c0.61,0,.79-0.4.8-1.14V81.09a0.79,0.79,0,0,0-.8-0.8H71.88V79.93h0c0.36,0,.72,0,1.07,0s0.54,0,.85,0l4.09,4.6V81.12a0.73,0.73,0,0,0-.77-0.83H76.93V79.93h0c0.44,0,.87,0,1.3,0s0.76,0,1.14,0h0v0.36H79.28c-0.38,0-.78,0-0.79,1.14v4.23a5.86,5.86,0,0,0,.06.93v0h0Z"/><path class="cls-4" d="M82.27,81h0l-0.86,2.63h1.74Zm-1.36,4.12a3.76,3.76,0,0,0-.21.72c0,0.28.39,0.33,0.7,0.33h0.1v0.28c-0.37,0-.75,0-1.13,0s-0.67,0-1,0V86.18h0.06a0.84,0.84,0,0,0,.81-0.61l1.49-4.27a7.79,7.79,0,0,0,.35-1.15,4.72,4.72,0,0,0,.85-0.4l0.07,0a0.06,0.06,0,0,1,.07,0L83.14,80l1.71,4.87c0.11,0.32.22,0.67,0.34,0.95a0.59,0.59,0,0,0,.62.37h0.06v0.28c-0.42,0-.84,0-1.28,0s-0.92,0-1.4,0V86.18h0.1c0.21,0,.58,0,0.58-0.27a3,3,0,0,0-.19-0.67l-0.36-1.08H81.21Z"/><path class="cls-4" d="M82.23,81h0ZM81.44,83.6h1.63l-0.81-2.49Zm-0.11.08L82.22,81h0.05v0h0v0h0l0.88,2.71H81.33Zm1.9,2.74c0.46,0,.91,0,1.36,0s0.84,0,1.24,0V86.23h0a0.63,0.63,0,0,1-.65-0.4c-0.12-.28-0.23-0.63-0.34-1L83.11,80,83,79.79H82.94a3.45,3.45,0,0,1-.83.37,7.7,7.7,0,0,1-.35,1.16l-1.49,4.27a0.89,0.89,0,0,1-.85.63h0v0.19c0.32,0,.64,0,1,0s0.73,0,1.08,0V86.23H81.4c-0.3,0-.73,0-0.74-0.37a3.68,3.68,0,0,1,.21-0.74h0l0.31-1h2.17l0.37,1.1a2.83,2.83,0,0,1,.19.68c0,0.29-.41.31-0.62,0.31H83.23v0.19Zm2.64,0.08c-0.42,0-.84,0-1.28,0s-0.92,0-1.39,0h0V86.14h0.14c0.22,0,.54,0,0.54-0.23a3,3,0,0,0-.18-0.66l-0.35-1.05H81.24l-0.29.94a3.86,3.86,0,0,0-.2.71c0,0.23.35,0.28,0.66,0.28h0.14v0.36h0c-0.37,0-.75,0-1.12,0s-0.67,0-1,0h0V86.14h0.1a0.8,0.8,0,0,0,.77-0.58l1.49-4.27a10.89,10.89,0,0,0,.37-1.18,4.8,4.8,0,0,0,.85-0.4l0.09,0a0.11,0.11,0,0,1,.1.05L83.18,80l1.71,4.87c0.11,0.33.22,0.67,0.34,0.94a0.55,0.55,0,0,0,.58.35h0.09v0.36h0Z"/><path class="cls-4" d="M86.28,80.44c-0.7,0-.73.17-0.87,0.85H85.13c0-.26.08-0.52,0.11-0.79a5.68,5.68,0,0,0,.05-0.79h0.22C85.6,80,85.83,80,86.08,80h4.8c0.25,0,.48,0,0.5-0.29l0.22,0c0,0.25-.07.5-0.1,0.75s0,0.5,0,.75l-0.28.1a0.74,0.74,0,0,0-.69-0.89H89v4.95a0.65,0.65,0,0,0,.77.8h0.18v0.28c-0.36,0-1,0-1.52,0s-1.21,0-1.57,0V86.18H87c0.51,0,.77,0,0.77-0.78v-5H86.28Z"/><path class="cls-4" d="M89.94,86.5c-0.37,0-1,0-1.52,0s-1.21,0-1.57,0h0V86.14H87c0.51,0,.72,0,0.73-0.74V80.48H86.28V80.39h1.56v5a0.67,0.67,0,0,1-.81.82H86.89v0.2c0.37,0,1,0,1.53,0s1.11,0,1.48,0v-0.2H89.77A0.7,0.7,0,0,1,89,85.38v-5h1.57a0.76,0.76,0,0,1,.72.88l0.2-.07c0-.24,0-0.49,0-0.73s0.06-.48.09-0.72l-0.14,0a0.43,0.43,0,0,1-.54.28H86a0.47,0.47,0,0,1-.54-0.27H85.34a5.47,5.47,0,0,1-.06.76c0,0.26-.07.5-0.11,0.75h0.2c0.12-.65.2-0.86,0.9-0.85v0.08c-0.69,0-.67.13-0.83,0.82v0H85.09v0c0-.26.08-0.52,0.11-0.79a5.36,5.36,0,0,0,.06-0.78v0h0.3v0c0.06,0.23.23,0.24,0.47,0.24h4.85c0.26,0,.45,0,0.46-0.25v0h0l0.26,0v0c0,0.25-.07.5-0.1,0.75s0,0.5,0,.75v0h0l-0.33.12V81.33a0.71,0.71,0,0,0-.65-0.86H89v4.91c0,0.7.29,0.75,0.73,0.76H90V86.5h0Z"/><path class="cls-4" d="M92,86.18h0.13c0.34,0,.69,0,0.69-0.53V80.78c0-.48-0.35-0.53-0.69-0.53H92V80c0.36,0,.92,0,1.38,0s1,0,1.46,0v0.28H94.66c-0.34,0-.69,0-0.69.53v4.87c0,0.48.35,0.53,0.69,0.53h0.13v0.28c-0.45,0-1,0-1.47,0s-1,0-1.37,0V86.18Z"/><path class="cls-4" d="M94.75,86.42v-0.2H94.66a0.58,0.58,0,0,1-.73-0.57V80.78a0.58,0.58,0,0,1,.73-0.57h0.09V80c-0.43,0-1,0-1.42,0s-1,0-1.33,0v0.2h0.09a0.58,0.58,0,0,1,.73.57v4.87a0.58,0.58,0,0,1-.73.57H92v0.2c0.36,0,.88,0,1.33,0s1,0,1.43,0m0,0.08c-0.45,0-1,0-1.47,0s-1,0-1.37,0h0V86.14h0.17c0.34,0,.64,0,0.65-0.49V80.78c0-.45-0.31-0.48-0.65-0.49H91.91V79.93h0c0.36,0,.92,0,1.38,0s1,0,1.46,0h0v0.36H94.66c-0.34,0-.65,0-0.65.49v4.87c0,0.45.31,0.48,0.65,0.49h0.17V86.5h0Z"/><path class="cls-4" d="M98.64,86.19c1.81,0,2.12-1.59,2.12-2.95s-0.73-3-2.28-3-2.11,1.45-2.11,2.7c0,1.67.76,3.26,2.27,3.26M98.5,79.83A3.26,3.26,0,0,1,102.06,83a3.41,3.41,0,0,1-3.52,3.56,3.29,3.29,0,0,1-3.48-3.34,3.38,3.38,0,0,1,3.43-3.43"/><path class="cls-4" d="M96.33,82.94c0-1.25.49-2.74,2.15-2.74s2.32,1.68,2.32,3-0.32,3-2.16,3V86.15c1.77,0,2.08-1.55,2.08-2.91s-0.73-3-2.24-3-2.07,1.42-2.07,2.66c0,1.66.76,3.21,2.23,3.22v0.08c-1.54,0-2.31-1.62-2.31-3.29m-1.3.33a3.43,3.43,0,0,1,3.47-3.47v0.08a3.35,3.35,0,0,0-3.39,3.39,3.25,3.25,0,0,0,3.44,3.3A3.37,3.37,0,0,0,102,83a3.22,3.22,0,0,0-3.53-3.17V79.79A3.31,3.31,0,0,1,102.1,83a3.46,3.46,0,0,1-3.56,3.6A3.33,3.33,0,0,1,95,83.26"/><path class="cls-4" d="M108.33,84.63l0,0V81.12a0.77,0.77,0,0,0-.81-0.88h-0.2V80c0.44,0,.86,0,1.3,0s0.76,0,1.15,0v0.28h-0.14c-0.39,0-.83.07-0.83,1.18v4.23a6,6,0,0,0,.06.94h-0.35l-4.79-5.34V85.1c0,0.81.16,1.09,0.87,1.09h0.16v0.28c-0.4,0-.8,0-1.2,0s-0.85,0-1.27,0V86.18h0.13c0.64,0,.84-0.44.84-1.18V81.09a0.83,0.83,0,0,0-.85-0.84h-0.12V80c0.35,0,.72,0,1.07,0s0.55,0,.83,0Z"/><path class="cls-4" d="M108.31,84.61h0Zm0,0,0,0Zm0.19,1.93h0.31a6.57,6.57,0,0,1,0-.9V81.43c0-1.12.47-1.22,0.87-1.22h0.1V80c-0.37,0-.74,0-1.11,0s-0.84,0-1.26,0v0.2h0.16a0.82,0.82,0,0,1,.85.92v3.52l0,0,0,0L104.19,80c-0.28,0-.55,0-0.83,0s-0.69,0-1,0v0.2h0.08a0.88,0.88,0,0,1,.89.88V85c0,0.74-.21,1.22-0.88,1.22h-0.09v0.2c0.4,0,.82,0,1.23,0s0.77,0,1.16,0v-0.2H104.6c-0.73,0-.91-0.32-0.91-1.13V81.16Zm0.35,0.08h-0.38l-4.72-5.26V85.1c0,0.81.13,1,.83,1h0.2V86.5h0c-0.4,0-.8,0-1.2,0s-0.84,0-1.27,0h0V86.14h0.17c0.61,0,.79-0.4.8-1.14V81.09a0.79,0.79,0,0,0-.81-0.8h-0.16V79.93h0c0.36,0,.72,0,1.07,0s0.54,0,.86,0l4.09,4.6V81.12a0.73,0.73,0,0,0-.77-0.83h-0.25V79.93h0c0.44,0,.87,0,1.3,0s0.76,0,1.15,0h0v0.36h-0.18c-0.38,0-.78,0-0.79,1.14v4.23a6.15,6.15,0,0,0,.05.93v0h0Z"/><path class="cls-4" d="M112.64,81h0l-0.87,2.63h1.74Zm-1.36,4.12a3.91,3.91,0,0,0-.2.72c0,0.28.39,0.33,0.7,0.33h0.1v0.28c-0.37,0-.75,0-1.13,0s-0.67,0-1,0V86.18h0.05a0.84,0.84,0,0,0,.81-0.61l1.49-4.27a7.6,7.6,0,0,0,.34-1.15,4.79,4.79,0,0,0,.85-0.4l0.07,0a0.06,0.06,0,0,1,.06,0L113.51,80l1.71,4.87c0.11,0.32.22,0.67,0.34,0.95a0.59,0.59,0,0,0,.61.37h0.06v0.28c-0.42,0-.84,0-1.29,0s-0.92,0-1.4,0V86.18h0.1c0.21,0,.58,0,0.58-0.27a3,3,0,0,0-.19-0.67l-0.36-1.08h-2.11Z"/><path class="cls-4" d="M112.6,81h0Zm-0.79,2.58h1.63l-0.81-2.49Zm-0.11.08L112.59,81h0v0h0v0h0l0.88,2.71H111.7Zm1.9,2.74c0.46,0,.91,0,1.36,0s0.84,0,1.24,0V86.23h0a0.64,0.64,0,0,1-.65-0.4c-0.12-.28-0.23-0.63-0.34-1L113.47,80l-0.08-.22h-0.08a3.57,3.57,0,0,1-.83.37,8,8,0,0,1-.35,1.16l-1.49,4.27a0.88,0.88,0,0,1-.85.63h0v0.19c0.32,0,.64,0,1,0s0.73,0,1.09,0V86.23h-0.06c-0.3,0-.73,0-0.74-0.37a3.86,3.86,0,0,1,.21-0.74h0l0.31-1h2.17l0.37,1.1a2.9,2.9,0,0,1,.19.68c0,0.29-.4.31-0.62,0.31H113.6v0.2Zm2.64,0.08c-0.42,0-.84,0-1.28,0s-0.92,0-1.39,0h0V86.14h0.14c0.22,0,.54-0.05.54-0.23a2.88,2.88,0,0,0-.19-0.66l-0.35-1.05H111.6l-0.29.94a3.93,3.93,0,0,0-.2.71c0,0.23.35,0.29,0.66,0.29h0.14v0.36h0c-0.37,0-.75,0-1.12,0s-0.67,0-1,0h0V86.14h0.09a0.81,0.81,0,0,0,.77-0.58l1.49-4.27a11.66,11.66,0,0,0,.37-1.18,5.06,5.06,0,0,0,.85-0.4l0.09,0a0.1,0.1,0,0,1,.1.05L113.55,80l1.71,4.87c0.11,0.33.22,0.67,0.34,0.95a0.55,0.55,0,0,0,.58.35h0.1v0.36h0Z"/><path class="cls-4" d="M118.58,85.55a0.52,0.52,0,0,0,.56.52,6.76,6.76,0,0,0,1.23,0,1.33,1.33,0,0,0,.89-0.5,2.12,2.12,0,0,0,.29-0.67h0.27c-0.1.53-.23,1.05-0.34,1.58-0.82,0-1.64,0-2.46,0s-1.64,0-2.46,0V86.18h0.13a0.57,0.57,0,0,0,.7-0.62V80.78c0-.48-0.36-0.53-0.7-0.53h-0.13V80c0.49,0,1,0,1.47,0s0.94,0,1.42,0v0.28h-0.23c-0.35,0-.63,0-0.63.5v4.8Z"/><path class="cls-4" d="M121.44,86.42c0.11-.51.23-1,0.33-1.5h-0.19a2.11,2.11,0,0,1-.29.65,1.38,1.38,0,0,1-.92.52c-0.24,0-.49,0-0.71,0l-0.52,0a0.56,0.56,0,0,1-.59-0.56v-4.8c0-.52.33-0.54,0.67-0.54h0.19V80c-0.46,0-.91,0-1.37,0s-1,0-1.43,0v0.2h0.09a0.59,0.59,0,0,1,.74.57v4.78a0.61,0.61,0,0,1-.74.66H116.6v0.2c0.8,0,1.61,0,2.42,0s1.62,0,2.42,0m0,0.08c-0.82,0-1.64,0-2.46,0s-1.64,0-2.46,0h0V86.14h0.17a0.53,0.53,0,0,0,.66-0.58V80.78c0-.45-0.32-0.48-0.66-0.49h-0.17V79.93h0c0.5,0,1,0,1.47,0s0.94,0,1.42,0h0v0.36h-0.27c-0.36,0-.58,0-0.59.46v4.8a0.48,0.48,0,0,0,.52.48l0.52,0a6.69,6.69,0,0,0,.7,0,1.3,1.3,0,0,0,.87-0.49,2.1,2.1,0,0,0,.28-0.66v0h0.35v0c-0.11.53-.23,1.05-0.35,1.58v0h0Z"/><path class="cls-4" d="M121.55,80.69h0.12a0.2,0.2,0,0,0,.19-0.25,0.18,0.18,0,0,0-.19-0.21h-0.11v0.46Zm-0.33.52v0c0.12,0,.14,0,0.14-0.09V80.34c0-.1,0-0.14-0.14-0.13V80.16h0.5a0.29,0.29,0,0,1,.33.26,0.31,0.31,0,0,1-.23.3L122,80.94a1,1,0,0,0,.22.23v0H122a1.1,1.1,0,0,1-.35-0.45h-0.11v0.32c0,0.06,0,.06.14,0.08v0h-0.47Zm0.49,0.28a0.8,0.8,0,1,0-.78-0.79,0.79,0.79,0,0,0,.78.79m0-1.78a1,1,0,1,1-1,1,1,1,0,0,1,1-1"/><circle class="cls-2" cx="79.36" cy="47.13" r="15.76"/><path class="cls-3" d="M79.38,63.16A16.35,16.35,0,0,1,62.92,47,16.1,16.1,0,0,1,79.38,30.53h4.23c8.92,0,17.07,6.73,17.07,16.46,0,8.9-8.14,16.18-17.07,16.18H79.38Zm0-31.29A14.94,14.94,0,1,0,94.35,46.82,14.94,14.94,0,0,0,79.41,31.88ZM76,55.65V38A9.46,9.46,0,0,0,76,55.65Zm12.86-8.83A9.48,9.48,0,0,0,82.8,38V55.66A9.48,9.48,0,0,0,88.88,46.82Z"/></svg>