<svg id="Layer_1" data-name="Layer 1" xmlns="http://www.w3.org/2000/svg" xmlns:xlink="http://www.w3.org/1999/xlink" viewBox="0 0 168 112"><defs><style>.cls-1{fill:none;}.cls-2{fill:#fff;}.cls-3{clip-path:url(#clip-path);}.cls-4{fill:#329947;}.cls-5{fill:#146643;}.cls-6{fill:#1bcc38;}.cls-7{clip-path:url(#clip-path-2);}.cls-8{fill:#0f549d;}.cls-9{fill:#02375e;}.cls-10{fill:#1174ce;}.cls-11{clip-path:url(#clip-path-3);}.cls-12{fill:#b41f36;}.cls-13{fill:#720a1e;}.cls-14{fill:#e20e37;}</style><clipPath id="clip-path"><path class="cls-1" d="M104,61.56H110c0.17,0,.58-0.06.75-0.06a2.71,2.71,0,0,0,2.14-2.72,2.81,2.81,0,0,0-2.14-2.72A3.06,3.06,0,0,0,110,56H104v5.56Zm5.38-38.37A10.53,10.53,0,0,0,98.81,33.72V44.66h14.87a6,6,0,0,1,1,.06c3.36,0.17,5.85,1.91,5.85,4.92,0,2.37-1.68,4.4-4.8,4.8v0.12c3.41,0.23,6,2.14,6,5.09,0,3.18-2.89,5.27-6.71,5.27H98.75V86.33H114.2a10.53,10.53,0,0,0,10.53-10.53V23.19H109.34Zm2.84,27.14A2.46,2.46,0,0,0,110,47.84c-0.12,0-.41-0.06-0.58-0.06H104v5.09h5.5a1.61,1.61,0,0,0,.58-0.06,2.46,2.46,0,0,0,2.14-2.49h0Z"/></clipPath><clipPath id="clip-path-2"><path class="cls-1" d="M51.12,23.19A10.53,10.53,0,0,0,40.59,33.72v26a20.83,20.83,0,0,0,9.09,2.37c3.65,0,5.61-2.2,5.61-5.21V44.6h9V56.81c0,4.75-3,8.62-13,8.62A44.43,44.43,0,0,1,40.53,64.1V86.27H56A10.53,10.53,0,0,0,66.52,75.74V23.19H51.12Z"/></clipPath><clipPath id="clip-path-3"><path class="cls-1" d="M80.23,23.19A10.53,10.53,0,0,0,69.7,33.72V47.49c2.66-2.26,7.29-3.7,14.76-3.36a47,47,0,0,1,8.28,1.27v4.46a20,20,0,0,0-8-2.31c-5.67-.41-9.09,2.37-9.09,7.23s3.41,7.7,9.09,7.23a21,21,0,0,0,8-2.31v4.46a45.84,45.84,0,0,1-8.28,1.27c-7.47.35-12.1-1.1-14.76-3.36V86.38H85.15A10.53,10.53,0,0,0,95.68,75.85V23.19H80.23Z"/></clipPath></defs><title>jcb</title><rect class="cls-1" width="168" height="112"/><path class="cls-2" d="M130,76.49a14.72,14.72,0,0,1-14.7,14.7h-80V33A14.72,14.72,0,0,1,50,18.27h80V76.49Z"/><g class="cls-3"><rect class="cls-4" x="92.7" y="-0.47" width="34.79" height="115.26"/><path class="cls-5" d="M120.45,48.39l11.28,64.79S97.56,110,97,110.07s-0.55-10.52-.55-10.52l2.2-49.14,7.44-5Z"/><polygon class="cls-6" points="116.04 3.22 96.89 15.1 97.27 35.03 124.67 23.15 116.04 3.22"/></g><g class="cls-7"><rect class="cls-8" x="33.18" y="-8.86" width="38.56" height="119.87"/><path class="cls-9" d="M64.32,44.6l11.28,64.79s-34.17-3.22-34.71-3.12-0.55-10.52-.55-10.52L39,63,56.3,63.8Z"/><polygon class="cls-10" points="57.88 3.22 38.73 15.1 39.11 35.03 66.52 23.15 57.88 3.22"/></g><g class="cls-11"><rect class="cls-12" x="63.36" y="-9.69" width="44.85" height="127.42"/><path class="cls-13" d="M92.72,45.46L104,110.25S69.83,107,69.29,107.13s-0.55-10.52-.55-10.52l-1-45,5.73-6Z"/><polygon class="cls-14" points="87.01 3.22 67.86 15.1 68.24 35.03 95.64 23.15 87.01 3.22"/></g></svg>